<?xml version="1.0" standalone="no"?>
<!DOCTYPE svg PUBLIC "-//W3C//DTD SVG 20010904//EN"
 "http://www.w3.org/TR/2001/REC-SVG-20010904/DTD/svg10.dtd">
<svg version="1.0" xmlns="http://www.w3.org/2000/svg"
 width="566.000000pt" height="368.000000pt" viewBox="0 0 566.000000 368.000000"
 preserveAspectRatio="xMidYMid meet">

<g transform="translate(0.000000,368.000000) scale(0.100000,-0.100000)"
fill="#000000" stroke="none">
<path d="M3502 3397 c-18 -18 -32 -36 -32 -40 0 -4 30 -7 68 -7 63 0 68 -2 80
-27 14 -30 17 -630 5 -1040 -6 -217 -7 -233 -25 -233 -23 0 -23 1 7 -53 l26
-46 -148 2 -148 2 -3 698 -2 697 47 2 48 1 -44 4 -44 4 29 32 29 32 -35 -32
c-30 -27 -45 -33 -85 -35 l-50 -1 45 -6 45 -6 3 -698 2 -697 -435 0 -434 1 -1
399 c0 266 3 400 10 400 5 0 10 4 10 9 0 6 -9 8 -21 6 -13 -3 -19 0 -16 8 4
14 5 14 107 17 41 2 64 5 51 7 l-23 5 28 29 c15 16 23 29 18 29 -6 0 -23 -13
-39 -30 -17 -18 -39 -30 -54 -30 l-25 0 30 33 29 32 -35 -32 c-23 -21 -46 -33
-65 -33 l-29 0 30 33 29 32 -35 -32 c-20 -18 -47 -33 -60 -33 l-24 0 29 30
c16 17 24 30 19 30 -6 0 -23 -13 -39 -30 -17 -18 -39 -30 -54 -30 l-25 0 29
30 c16 17 24 30 19 30 -11 0 -64 -52 -64 -63 0 -4 30 -7 68 -7 63 0 68 -2 80
-27 19 -41 17 -786 -2 -802 -9 -8 -56 -11 -142 -9 l-129 3 -3 418 -2 417 47 2
48 1 -44 6 -43 6 21 19 c11 11 21 24 21 30 0 5 -15 -4 -33 -22 -27 -27 -41
-32 -82 -34 l-50 -1 44 -6 43 -6 -21 -19 c-11 -11 -21 -24 -21 -29 0 -6 14 2
30 18 l30 29 0 -417 0 -417 -587 -2 -588 -3 -3 -57 c-2 -32 -6 -58 -10 -58 -4
0 -63 31 -132 69 l-125 69 -6 98 c-3 55 -6 88 -7 75 l-2 -25 -30 29 c-16 16
-32 26 -35 24 -2 -3 11 -21 30 -39 22 -21 35 -44 35 -59 l0 -25 -30 29 c-16
16 -32 26 -35 24 -2 -3 11 -21 30 -39 19 -19 35 -42 35 -52 0 -24 -8 -23 -39
4 -16 14 -13 8 7 -13 17 -19 32 -46 32 -59 l0 -24 -30 29 c-17 16 -30 24 -30
19 0 -6 14 -23 30 -39 17 -16 30 -37 30 -47 0 -24 -13 -23 -35 2 -10 11 -23
20 -29 20 -5 0 7 -17 27 -38 25 -26 37 -47 37 -67 l0 -29 -30 29 c-16 16 -32
26 -35 24 -2 -3 11 -21 30 -39 19 -19 35 -42 35 -52 0 -24 -13 -23 -35 2 -10
11 -23 20 -29 20 -5 0 7 -17 27 -38 22 -22 37 -48 37 -62 l0 -24 -32 30 -33
29 33 -35 c17 -20 32 -47 32 -60 l0 -24 -30 29 c-16 16 -32 26 -35 24 -2 -3
11 -21 30 -39 22 -21 35 -44 35 -59 l0 -25 -28 27 c-41 40 -52 33 -12 -8 19
-19 38 -35 42 -35 4 0 8 39 8 88 l0 87 133 72 132 73 3 -60 3 -60 1932 2 1932
3 -1927 2 -1927 3 0 125 0 125 574 0 c316 0 575 -3 575 -7 0 -4 -10 -18 -22
-32 -14 -16 -8 -13 13 7 l35 32 136 0 c81 0 139 -4 143 -10 3 -5 15 -10 26
-10 10 0 19 5 19 10 0 7 147 10 422 10 l422 0 -30 -32 -29 -32 38 32 38 32
137 0 c93 0 142 -4 150 -12 9 -9 17 -9 34 0 17 10 164 12 596 10 314 -2 572 0
572 5 0 5 -1139 14 -1173 8 -4 -1 4 21 18 49 l25 50 -25 0 -25 0 0 623 c0 477
3 629 13 650 11 25 16 27 82 28 39 1 57 4 41 6 l-28 5 28 31 29 32 -35 -32
c-20 -18 -47 -33 -60 -33 l-24 0 29 30 c16 16 26 32 24 35 -3 2 -21 -11 -39
-30 -21 -22 -44 -35 -59 -35 l-25 0 29 30 c16 17 24 30 19 30 -6 0 -23 -13
-39 -30 -17 -18 -39 -30 -54 -30 l-25 0 30 33 29 32 -35 -32 c-20 -18 -47 -33
-60 -33 l-24 0 29 30 c16 16 26 32 24 35 -3 2 -20 -10 -37 -28z m148 -60 c0
-8 -7 -14 -15 -14 -8 0 -15 6 -15 14 0 7 7 13 15 13 8 0 15 -6 15 -13z m-2787
-1471 c48 -26 87 -51 87 -54 -1 -6 -223 -131 -251 -140 -5 -2 -9 55 -9 143 l0
147 43 -25 c23 -13 81 -45 130 -71z m1594 68 c-3 -3 -12 -4 -19 -1 -8 3 -5 6
6 6 11 1 17 -2 13 -5z m1190 0 c-3 -3 -12 -4 -19 -1 -8 3 -5 6 6 6 11 1 17 -2
13 -5z"/>
<path d="M3950 3409 c0 -29 -30 -140 -43 -156 -7 -10 2 -13 42 -13 63 0 105
20 126 60 36 69 7 120 -73 128 -49 4 -52 3 -52 -19z m92 -6 c12 -10 18 -30 18
-55 0 -51 -43 -98 -89 -98 -17 0 -31 3 -31 7 0 4 9 42 21 85 18 65 25 78 42
78 11 0 29 -7 39 -17z"/>
<path d="M3279 3313 l-24 -28 28 24 c25 23 32 31 24 31 -2 0 -14 -12 -28 -27z"/>
<path d="M2724 2902 c6 -11 -32 -152 -46 -169 -16 -20 82 -17 110 3 24 17 29
53 10 72 -10 10 -7 16 10 28 28 19 28 39 0 58 -23 17 -93 22 -84 8z m74 -34
c3 -23 -2 -30 -25 -39 -25 -9 -26 -12 -10 -20 20 -11 23 -49 5 -67 -14 -14
-58 -16 -58 -2 0 5 6 29 14 52 8 24 17 58 21 76 5 27 11 33 28 30 16 -2 23
-11 25 -30z"/>
<path d="M3102 2727 c-1 -13 -8 -42 -16 -65 l-15 -42 39 0 c21 0 41 4 44 8 2
4 -11 6 -29 4 l-34 -4 19 61 c13 43 15 61 6 61 -6 0 -12 -10 -14 -23z"/>
<path d="M3174 2679 c-4 -7 -3 -10 2 -6 6 3 16 2 24 -3 13 -8 13 -14 -3 -42
l-17 -33 20 24 c12 13 20 34 18 45 -3 24 -32 33 -44 15z"/>
<path d="M3727 2628 c2 -13 -7 -56 -20 -95 l-23 -73 22 0 c16 0 21 5 17 18 -2
10 0 30 6 45 9 22 17 27 44 27 38 0 67 25 67 58 0 27 -28 42 -78 42 -35 0 -39
-2 -35 -22z m83 -3 c22 -26 -3 -65 -40 -65 -28 0 -31 3 -25 23 4 12 9 30 11
40 6 21 37 22 54 2z"/>
<path d="M3143 2568 c-2 -5 9 -8 26 -8 16 0 32 4 35 9 3 4 -8 8 -25 7 -17 -1
-33 -4 -36 -8z"/>
<path d="M1942 2437 c-1 -13 -8 -42 -16 -65 l-15 -42 39 0 c21 0 41 4 44 8 2
4 -11 6 -29 4 l-34 -4 19 61 c13 43 15 61 6 61 -6 0 -12 -10 -14 -23z"/>
<path d="M2030 2325 c-13 -54 -14 -65 -2 -65 7 0 11 4 8 9 -3 5 1 31 9 57 17
56 18 64 8 64 -5 0 -15 -29 -23 -65z"/>
<path d="M967 2218 l-45 -63 29 -3 c23 -3 29 -8 29 -27 0 -13 -6 -26 -12 -28
-7 -3 3 -6 22 -6 19 0 30 3 23 7 -8 5 -9 31 -4 92 4 47 7 86 6 88 -2 2 -23
-25 -48 -60z m15 -50 c-6 -6 -17 -8 -26 -6 -14 3 -13 7 6 35 l23 32 3 -26 c2
-14 -1 -30 -6 -35z"/>
<path d="M3826 2186 c7 -18 -35 -159 -50 -168 -6 -4 22 -8 62 -8 39 0 72 4 72
9 0 5 3 17 7 27 5 14 2 13 -15 -4 -27 -27 -98 -32 -88 -6 3 9 9 27 12 40 6 25
32 32 51 13 7 -7 12 -3 15 16 4 19 2 23 -5 16 -6 -6 -19 -11 -30 -11 -16 0
-18 5 -12 33 4 17 9 35 12 40 6 10 41 9 64 -3 15 -8 19 -7 19 5 0 12 -13 15
-60 15 -47 0 -58 -3 -54 -14z"/>
<path d="M4885 2180 c8 -13 -34 -163 -49 -172 -6 -4 5 -8 24 -8 20 0 30 4 23
8 -10 6 -10 16 -1 45 9 29 16 37 35 37 13 0 23 -5 23 -11 0 -5 5 -7 10 -4 6 3
10 13 10 20 0 11 -8 13 -31 8 -31 -6 -31 -6 -24 28 4 19 9 37 12 42 7 12 68 8
81 -5 9 -9 12 -8 12 5 0 14 -11 17 -66 17 -40 0 -63 -4 -59 -10z"/>
<path d="M2631 2167 c-31 -16 -59 -55 -67 -92 -7 -37 27 -85 59 -84 l22 0 -22
9 c-67 27 -20 170 57 170 22 0 33 -6 40 -22 5 -13 9 -18 9 -11 1 6 3 17 6 25
7 18 -72 22 -104 5z"/>
<path d="M890 2115 l-23 -25 22 0 c13 0 19 4 16 10 -4 6 -1 17 5 25 20 25 5
17 -20 -10z"/>
<path d="M3359 1983 l-24 -28 28 24 c25 23 32 31 24 31 -2 0 -14 -12 -28 -27z"/>
<path d="M2174 1978 l-19 -23 23 19 c21 18 27 26 19 26 -2 0 -12 -10 -23 -22z"/>
<path d="M960 1475 c0 -63 -1 -65 -25 -65 l-26 0 26 -43 c14 -24 25 -51 25
-60 0 -16 57 -17 740 -17 l740 0 0 -50 c0 -47 -2 -50 -25 -50 l-25 0 25 -47
c14 -27 25 -54 25 -60 0 -10 242 -13 1195 -13 1069 0 1195 2 1195 15 0 9 9 33
20 55 11 22 20 42 20 45 0 3 -9 5 -20 5 -19 0 -20 7 -20 175 l0 175 -1935 0
-1935 0 0 -65z m410 -10 c0 -48 -2 -55 -20 -55 -25 0 -25 -2 0 -50 l20 -40
-195 0 c-107 0 -195 3 -195 8 0 4 9 21 20 37 25 38 25 45 0 45 -18 0 -20 7
-20 55 l0 55 195 0 195 0 0 -55z m390 0 c0 -48 -2 -55 -20 -55 -25 0 -25 -2 0
-50 l20 -40 -185 0 -185 0 20 40 c25 48 25 50 0 50 -18 0 -20 7 -20 55 l0 55
185 0 185 0 0 -55z m320 0 c0 -49 -2 -55 -20 -55 l-20 0 20 -40 c11 -21 20
-42 20 -45 0 -3 -68 -5 -150 -5 l-150 0 20 40 c25 48 25 50 0 50 -18 0 -20 7
-20 55 l0 55 150 0 150 0 0 -55z m350 0 c0 -49 -2 -55 -21 -55 l-21 0 21 -34
c12 -18 21 -38 21 -45 0 -8 -49 -11 -164 -11 l-165 0 26 45 25 45 -26 0 c-24
0 -26 3 -26 48 0 27 3 52 7 55 3 4 78 7 165 7 l158 0 0 -55z m410 -110 c0
-159 -1 -165 -20 -165 -20 0 -20 -2 5 -50 l25 -50 -195 0 c-120 0 -195 4 -195
10 0 5 9 24 20 42 25 41 25 48 0 48 -18 0 -20 7 -20 73 0 55 5 79 20 102 25
38 25 45 0 45 -18 0 -20 7 -20 55 l0 55 190 0 190 0 0 -165z m400 0 c0 -158
-1 -165 -20 -165 -11 0 -20 -2 -20 -5 0 -3 9 -23 20 -45 11 -22 20 -42 20 -45
0 -3 -86 -5 -191 -5 l-191 0 26 46 c31 56 31 54 6 54 -19 0 -20 7 -20 165 l0
165 185 0 185 0 0 -165z m380 0 c0 -158 -1 -165 -20 -165 -25 0 -25 -7 0 -45
36 -55 36 -55 -160 -55 -99 0 -180 3 -180 8 0 4 9 22 20 40 25 41 25 52 0 52
-19 0 -20 7 -20 165 l0 165 180 0 180 0 0 -165z m410 0 c0 -159 -1 -165 -20
-165 -20 0 -20 -2 5 -50 l25 -50 -200 0 -200 0 25 50 25 50 -25 0 -25 0 0 158
c0 87 3 162 7 165 3 4 91 7 195 7 l188 0 0 -165z m400 0 c0 -158 -1 -165 -20
-165 -11 0 -20 -2 -20 -5 0 -3 9 -23 20 -45 11 -22 20 -42 20 -45 0 -3 -86 -5
-191 -5 l-191 0 26 46 c31 56 31 54 6 54 -19 0 -20 7 -20 165 l0 165 185 0
185 0 0 -165z m378 -2 l2 -163 -25 0 -26 0 26 -43 c14 -24 22 -47 18 -50 -8
-8 -353 -9 -353 -2 0 3 9 23 20 45 11 22 20 42 20 45 0 3 -9 5 -20 5 -19 0
-20 7 -20 165 l0 165 178 -2 177 -3 3 -162z"/>
<path d="M1962 1133 c3 -11 1 -29 -4 -39 -9 -18 -8 -18 6 0 19 23 20 42 4 52
-7 5 -9 1 -6 -13z"/>
<path d="M1814 1124 c10 -9 16 -33 16 -62 1 -44 2 -46 16 -27 9 11 20 29 25
40 9 19 9 19 -4 2 -13 -16 -15 -14 -21 23 -5 32 -11 40 -27 40 -19 0 -19 -1
-5 -16z"/>
<path d="M1892 1123 c-8 -15 -9 -23 -2 -23 5 0 10 -18 10 -40 0 -47 8 -50 34
-12 11 15 13 21 5 14 -12 -11 -15 -5 -24 35 -10 45 -11 47 -23 26z"/>
<path d="M3402 988 c-9 -11 -5 -14 16 -13 22 0 28 -5 30 -27 3 -22 -8 -40 -49
-84 l-53 -55 49 3 c26 2 50 8 52 14 2 6 -11 8 -34 6 l-38 -5 48 52 c40 43 48
57 45 84 -2 26 -8 33 -29 35 -14 2 -31 -3 -37 -10z"/>
<path d="M3503 920 c11 -7 17 -23 17 -45 0 -64 10 -70 39 -23 20 34 26 39 29
23 7 -49 13 -65 21 -60 9 5 5 73 -5 105 -3 9 -14 -1 -32 -30 l-27 -45 -5 40
c-4 34 -9 40 -30 43 -22 2 -23 1 -7 -8z"/>
<path d="M3656 915 c4 -8 8 -15 10 -15 2 0 4 7 4 15 0 8 -4 15 -10 15 -5 0 -7
-7 -4 -15z"/>
<path d="M1702 631 c-7 -33 -18 -62 -25 -64 -6 -3 12 -6 41 -6 43 -1 52 2 52
16 0 13 -3 14 -12 5 -7 -7 -20 -12 -31 -12 -16 0 -18 5 -12 33 4 17 13 44 20
60 12 24 12 27 -4 27 -13 0 -20 -15 -29 -59z"/>
<path d="M2985 680 c7 -11 -13 -88 -28 -108 -8 -11 -1 -13 38 -10 32 2 50 8
53 18 4 12 2 13 -9 3 -7 -7 -23 -13 -35 -13 -23 0 -23 0 -7 53 8 28 20 55 27
59 6 4 -1 8 -17 8 -16 0 -26 -4 -22 -10z"/>
<path d="M4162 631 c-7 -33 -18 -62 -25 -64 -6 -3 12 -6 41 -6 43 -1 52 2 52
16 0 13 -3 14 -12 5 -7 -7 -20 -12 -31 -12 -16 0 -18 5 -12 33 4 17 13 44 20
60 12 24 12 27 -4 27 -13 0 -20 -15 -29 -59z"/>
<path d="M1798 583 c6 -2 12 -13 12 -23 0 -10 -6 -20 -12 -23 -10 -3 -10 -7 0
-19 18 -22 4 -48 -27 -49 -24 -2 -24 -2 -3 -6 33 -6 55 15 48 47 -3 15 0 32 6
38 15 15 2 42 -19 41 -11 0 -13 -3 -5 -6z"/>
<path d="M4255 580 c-3 -5 3 -10 14 -10 11 0 23 5 26 10 3 6 -3 10 -14 10 -11
0 -23 -4 -26 -10z"/>
<path d="M3091 567 c-6 -8 -8 -16 -5 -20 3 -3 3 -15 -1 -27 -5 -15 -13 -20
-26 -17 -10 3 -22 1 -25 -4 -3 -5 4 -9 15 -9 13 0 21 -7 21 -17 0 -33 26 18
34 65 7 45 5 50 -13 29z"/>
<path d="M4240 552 c0 -5 7 -13 16 -16 10 -4 14 -15 12 -33 -2 -22 -8 -28 -25
-27 -13 0 -23 -3 -23 -8 0 -19 45 -2 57 22 10 20 10 29 -1 44 -14 22 -36 33
-36 18z"/>
<path d="M961 439 c-1 -36 -7 -51 -31 -74 -16 -16 -30 -33 -30 -39 0 -5 13 3
29 18 l30 28 4 -33 c3 -31 4 -30 5 9 l2 42 732 0 732 0 -30 -31 c-24 -26 -25
-30 -7 -20 12 6 25 17 30 24 5 8 10 0 14 -23 l6 -35 2 43 1 42 588 -2 587 -3
6 -40 6 -40 2 43 1 42 582 0 582 0 -29 -30 c-16 -16 -26 -32 -24 -35 3 -3 35
25 72 62 69 70 84 98 22 44 l-36 -31 -582 2 -582 3 -6 40 -6 40 -2 -42 -1 -43
-582 0 -582 0 29 30 c16 16 24 30 19 30 -6 0 -21 -12 -35 -26 l-24 -26 -6 39
-6 38 -2 -42 -1 -43 -727 0 -727 0 29 30 c16 17 24 30 19 30 -6 0 -21 -12 -35
-26 l-24 -26 -6 39 -6 38 -2 -46z"/>
<path d="M3669 433 l-24 -28 28 24 c15 14 27 26 27 28 0 8 -8 1 -31 -24z"/>
<path d="M3589 353 l-24 -28 28 24 c15 14 27 26 27 28 0 8 -8 1 -31 -24z"/>
</g>
</svg>
